<svg id="Layer_1" data-name="Layer 1" xmlns="http://www.w3.org/2000/svg" viewBox="0 0 800 800"><path d="M217.63,120.21c-.28-1.36-17.67,1.39-18.79,1.6a94.07,94.07,0,0,0-41.54,18.86c-29.75,24-43.43,71.49-39.83,108.59a102.61,102.61,0,0,0,19.89,51.57c9.46,12.54,28.14,30.93,45.42,28.47-4.86,46.48-7,93.46-7.2,140.18-.16,34.9.88,69.94,5.06,104.61s8.78,74.65,36.08,99.53c14.92,13.6,34.05,21.66,53.33,27.66,82,25.5,166.93,41.4,251.28,15.5a279.29,279.29,0,0,0,74.12-35.34S679.82,620.92,637.64,311c0,0,128.38-133.89-47.69-205.42,0,0-58.69,141.22-115.55,93.54,0,0-44,133.88-154.06,5.5C320.34,204.58,241.47,243.09,217.63,120.21Z" style="fill:#824c16"/><path d="M209,139.35s-171.61,89.89,1.63,174.88c0,0-62.1,307.26,55.57,359.56,0,0,207.57,63.74,312.17-8.17,0,0,81.72-42.49,29.41-362.83,0,0,114.41-75.18-16.34-163.44,0,0-22.88,130.75-94.79,101.33,0,0-65.38,150.36-186.32,0C310.36,240.68,212.3,283.18,209,139.35Z" style="fill:#fff6eb"/><polygon points="274.19 70.69 285.02 106.82 306.7 106.82 324.76 124.88 350.05 99.59 335.6 70.69 274.19 70.69" style="fill:#824c16"/><polygon points="461.5 69.42 438.14 109.47 458.16 126.15 501.54 119.48 511.55 86.11 461.5 69.42" style="fill:#824c16"/><path d="M209,140s-2.62,122.1,98.56,101.73C307.6,241.73,207.52,310.68,209,140Z" style="fill:#ffdebb"/><path d="M311.15,241.66s92.36,118.91,183.08,4C494.23,245.7,419.08,443,311.15,241.66Z" style="fill:#ffdebb"/><path d="M499.26,241.66s73.16-5,91.67-99.5C590.93,142.16,584.86,301.11,499.26,241.66Z" style="fill:#ffdebb"/><path d="M210.56,138.16l7.34-2.44s14.69,102.77,100.33,75.86l-7.34,24.47S222.8,272.75,210.56,138.16Z" style="fill:#774217"/><path d="M313.34,238.49l7.34-26.91s97.88,127.24,154.16-4.9l19.58,31.81S413.67,351.06,313.34,238.49Z" style="fill:#774217"/><path d="M477.29,206.68l19.58,31.81s80.75-9.79,93-107.67V113.69S531.13,240.94,477.29,206.68Z" style="fill:#774217"/><polygon points="288.87 101.46 308.44 101.46 323.13 118.59 337.81 106.35 313.34 91.67 288.87 91.67 288.87 101.46" style="fill:#774217"/><polygon points="450.37 111.25 460.16 121.03 496.87 116.14 499.31 101.46 450.37 111.25" style="fill:#774217"/></svg>